<svg xmlns="http://www.w3.org/2000/svg" width="144" height="55" viewBox="0 0 381 146" fill="none"><path d="M9.639 98V19.222H47.362C55.454 19.222 61.88 21.4433 66.64 25.886C71.4793 30.3287 73.899 36.3183 73.899 43.855C73.899 48.9323 72.9073 52.9783 70.924 55.993C69.02 59.0077 66.6003 61.3083 63.665 62.895C60.7297 64.4023 57.7943 65.513 54.859 66.227L75.565 98H64.974L45.934 67.774H18.564V98H9.639ZM18.564 59.325H45.815C48.671 59.325 51.5667 58.8887 54.502 58.016C57.4373 57.1433 59.8967 55.5963 61.88 53.375C63.9427 51.0743 64.974 47.901 64.974 43.855C64.974 38.857 63.2683 34.93 59.857 32.074C56.4457 29.1387 51.9237 27.671 46.291 27.671H18.564V59.325ZM124.229 98.952C118.279 98.952 112.845 97.9207 107.926 95.858C103.008 93.7953 98.7635 90.8997 95.1935 87.171C91.7028 83.4423 89.0055 79.1583 87.1015 74.319C85.1975 69.4003 84.2455 64.1643 84.2455 58.611C84.2455 52.9783 85.1975 47.7423 87.1015 42.903C89.0055 38.0637 91.7028 33.7797 95.1935 30.051C98.7635 26.3223 103.008 23.4267 107.926 21.364C112.845 19.3013 118.279 18.27 124.229 18.27C130.179 18.27 135.614 19.3013 140.532 21.364C145.451 23.4267 149.656 26.3223 153.146 30.051C156.716 33.7797 159.453 38.0637 161.357 42.903C163.261 47.7423 164.213 52.9783 164.213 58.611C164.213 64.1643 163.261 69.4003 161.357 74.319C159.453 79.1583 156.716 83.4423 153.146 87.171C149.656 90.8997 145.451 93.7953 140.532 95.858C135.614 97.9207 130.179 98.952 124.229 98.952ZM124.229 90.265C130.655 90.265 136.169 88.8767 140.77 86.1C145.451 83.244 149.021 79.436 151.48 74.676C154.019 69.8367 155.288 64.4817 155.288 58.611C155.288 52.661 154.019 47.306 151.48 42.546C149.021 37.786 145.451 34.0177 140.77 31.241C136.169 28.385 130.655 26.957 124.229 26.957C117.883 26.957 112.369 28.385 107.688 31.241C103.008 34.0177 99.3982 37.786 96.8595 42.546C94.4002 47.306 93.1705 52.661 93.1705 58.611C93.1705 64.4817 94.4002 69.8367 96.8595 74.676C99.3982 79.436 103.008 83.244 107.688 86.1C112.369 88.8767 117.883 90.265 124.229 90.265ZM178.493 98V19.222H188.846L237.517 85.505V19.222H246.442V98H236.089L187.418 31.479V98H178.493ZM265.768 98V19.222H276.121L304.324 56.588L332.051 19.222H342.404V98H333.479V32.788L304.324 70.273L274.693 32.788V98H265.768ZM361.642 98V19.222H370.567V98H361.642Z" fill="black"></path><path d="M2.108 138L12.224 114.168H15.608L25.724 138H22.736L19.82 131.088H8.012L5.096 138H2.108ZM9.056 128.604H18.776L13.916 116.976L9.056 128.604ZM29.8319 138V114.168H41.2439C43.6919 114.168 45.6359 114.84 47.0759 116.184C48.5399 117.528 49.2719 119.34 49.2719 121.62C49.2719 123.156 48.9719 124.38 48.3719 125.292C47.7959 126.204 47.0639 126.9 46.1759 127.38C45.2879 127.836 44.3999 128.172 43.5119 128.388L49.7759 138H46.5719L40.8119 128.856H32.5319V138H29.8319ZM32.5319 126.3H40.7759C41.6399 126.3 42.5159 126.168 43.4039 125.904C44.2919 125.64 45.0359 125.172 45.6359 124.5C46.2599 123.804 46.5719 122.844 46.5719 121.62C46.5719 120.108 46.0559 118.92 45.0239 118.056C43.9919 117.168 42.6239 116.724 40.9199 116.724H32.5319V126.3ZM60.898 138V116.724H52.582V114.168H71.914V116.724H63.598V138H60.898ZM85.1735 138V114.168H87.8735V138H85.1735ZM94.7965 138V114.168H97.9285L112.652 134.22V114.168H115.352V138H112.22L97.4965 117.876V138H94.7965ZM128.183 138V116.724H119.867V114.168H139.199V116.724H130.883V138H128.183ZM143.714 138V114.168H161.246V116.76H146.414V124.752H159.662V127.38H146.414V135.408H161.246V138H143.714ZM166.697 138V114.168H178.109C180.557 114.168 182.501 114.84 183.941 116.184C185.405 117.528 186.137 119.34 186.137 121.62C186.137 123.156 185.837 124.38 185.237 125.292C184.661 126.204 183.929 126.9 183.041 127.38C182.153 127.836 181.265 128.172 180.377 128.388L186.641 138H183.437L177.677 128.856H169.397V138H166.697ZM169.397 126.3H177.641C178.505 126.3 179.381 126.168 180.269 125.904C181.157 125.64 181.901 125.172 182.501 124.5C183.125 123.804 183.437 122.844 183.437 121.62C183.437 120.108 182.921 118.92 181.889 118.056C180.857 117.168 179.489 116.724 177.785 116.724H169.397V126.3ZM191.859 138V114.168H194.559V138H191.859ZM212.066 138.288C210.266 138.288 208.622 137.976 207.134 137.352C205.646 136.728 204.362 135.852 203.282 134.724C202.226 133.596 201.41 132.3 200.834 130.836C200.258 129.348 199.97 127.764 199.97 126.084C199.97 124.38 200.258 122.796 200.834 121.332C201.41 119.868 202.226 118.572 203.282 117.444C204.362 116.316 205.646 115.44 207.134 114.816C208.622 114.192 210.266 113.88 212.066 113.88C213.866 113.88 215.51 114.192 216.998 114.816C218.486 115.44 219.758 116.316 220.814 117.444C221.894 118.572 222.722 119.868 223.298 121.332C223.874 122.796 224.162 124.38 224.162 126.084C224.162 127.764 223.874 129.348 223.298 130.836C222.722 132.3 221.894 133.596 220.814 134.724C219.758 135.852 218.486 136.728 216.998 137.352C215.51 137.976 213.866 138.288 212.066 138.288ZM212.066 135.66C214.01 135.66 215.678 135.24 217.07 134.4C218.486 133.536 219.566 132.384 220.31 130.944C221.078 129.48 221.462 127.86 221.462 126.084C221.462 124.284 221.078 122.664 220.31 121.224C219.566 119.784 218.486 118.644 217.07 117.804C215.678 116.94 214.01 116.508 212.066 116.508C210.146 116.508 208.478 116.94 207.062 117.804C205.646 118.644 204.554 119.784 203.786 121.224C203.042 122.664 202.67 124.284 202.67 126.084C202.67 127.86 203.042 129.48 203.786 130.944C204.554 132.384 205.646 133.536 207.062 134.4C208.478 135.24 210.146 135.66 212.066 135.66ZM229.562 138V114.168H240.974C243.422 114.168 245.366 114.84 246.806 116.184C248.27 117.528 249.002 119.34 249.002 121.62C249.002 123.156 248.702 124.38 248.102 125.292C247.526 126.204 246.794 126.9 245.906 127.38C245.018 127.836 244.13 128.172 243.242 128.388L249.506 138H246.302L240.542 128.856H232.262V138H229.562ZM232.262 126.3H240.506C241.37 126.3 242.246 126.168 243.134 125.904C244.022 125.64 244.766 125.172 245.366 124.5C245.99 123.804 246.302 122.844 246.302 121.62C246.302 120.108 245.786 118.92 244.754 118.056C243.722 117.168 242.354 116.724 240.65 116.724H232.262V126.3ZM272 138.288C269.648 138.288 267.74 137.976 266.276 137.352C264.812 136.704 263.708 135.816 262.964 134.688C262.244 133.56 261.824 132.288 261.704 130.872H264.512C264.584 132.024 264.968 132.96 265.664 133.68C266.36 134.376 267.272 134.892 268.4 135.228C269.552 135.564 270.812 135.732 272.18 135.732C274.196 135.732 275.792 135.384 276.968 134.688C278.144 133.968 278.732 132.912 278.732 131.52C278.732 130.68 278.432 130.008 277.832 129.504C277.256 128.976 276.476 128.544 275.492 128.208C274.532 127.872 273.476 127.572 272.324 127.308C271.172 127.02 270.008 126.72 268.832 126.408C267.68 126.096 266.612 125.7 265.628 125.22C264.668 124.74 263.888 124.128 263.288 123.384C262.712 122.616 262.424 121.644 262.424 120.468C262.424 118.524 263.168 116.94 264.656 115.716C266.168 114.492 268.412 113.88 271.388 113.88C273.5 113.88 275.24 114.204 276.608 114.852C277.976 115.476 278.996 116.304 279.668 117.336C280.364 118.368 280.748 119.484 280.82 120.684H278.048C277.904 119.484 277.304 118.476 276.248 117.66C275.192 116.82 273.572 116.4 271.388 116.4C270.044 116.4 268.952 116.532 268.112 116.796C267.272 117.06 266.624 117.408 266.168 117.84C265.736 118.248 265.436 118.68 265.268 119.136C265.124 119.592 265.052 120.024 265.052 120.432C265.052 121.224 265.34 121.872 265.916 122.376C266.516 122.856 267.296 123.264 268.256 123.6C269.24 123.912 270.32 124.2 271.496 124.464C272.672 124.728 273.836 125.028 274.988 125.364C276.164 125.676 277.232 126.084 278.192 126.588C279.176 127.068 279.956 127.692 280.532 128.46C281.132 129.228 281.432 130.212 281.432 131.412C281.432 133.62 280.592 135.324 278.912 136.524C277.232 137.7 274.928 138.288 272 138.288ZM286.696 138V114.168H297.424C299.968 114.168 301.972 114.864 303.436 116.256C304.9 117.624 305.632 119.484 305.632 121.836C305.632 124.188 304.9 126.06 303.436 127.452C301.972 128.82 299.968 129.504 297.424 129.504H289.396V138H286.696ZM289.396 126.984H297.244C299.116 126.984 300.532 126.528 301.492 125.616C302.452 124.704 302.932 123.444 302.932 121.836C302.932 120.252 302.452 119.004 301.492 118.092C300.532 117.18 299.116 116.724 297.244 116.724H289.396V126.984ZM306.308 138L316.424 114.168H319.808L329.924 138H326.936L324.02 131.088H312.212L309.296 138H306.308ZM313.256 128.604H322.976L318.116 116.976L313.256 128.604ZM343.583 138.288C341.207 138.288 339.155 137.748 337.427 136.668C335.699 135.564 334.367 134.088 333.431 132.24C332.519 130.392 332.063 128.34 332.063 126.084C332.063 123.828 332.519 121.776 333.431 119.928C334.367 118.08 335.699 116.616 337.427 115.536C339.155 114.432 341.207 113.88 343.583 113.88C345.383 113.88 347.003 114.204 348.443 114.852C349.883 115.476 351.107 116.34 352.115 117.444C353.123 118.548 353.879 119.832 354.383 121.296H351.539C350.939 119.832 349.991 118.668 348.695 117.804C347.399 116.94 345.767 116.508 343.799 116.508C341.879 116.508 340.235 116.94 338.867 117.804C337.523 118.644 336.503 119.784 335.807 121.224C335.111 122.664 334.763 124.284 334.763 126.084C334.763 127.86 335.111 129.48 335.807 130.944C336.503 132.384 337.523 133.536 338.867 134.4C340.235 135.24 341.879 135.66 343.799 135.66C345.767 135.66 347.399 135.228 348.695 134.364C349.991 133.5 350.939 132.336 351.539 130.872H354.383C353.879 132.312 353.123 133.596 352.115 134.724C351.107 135.828 349.883 136.704 348.443 137.352C347.003 137.976 345.383 138.288 343.583 138.288ZM359.51 138V114.168H377.042V116.76H362.21V124.752H375.458V127.38H362.21V135.408H377.042V138H359.51Z" fill="black"></path></svg>